<svg width="181" height="36" viewBox="0 0 181 36" fill="none" xmlns="http://www.w3.org/2000/svg">
<g filter="url(#filter0_d_64_2)">
<path d="M4.73438 1.82812C5.625 2.03906 6.42188 2.20312 7.125 2.32031C7.85156 2.41406 8.46094 2.48437 8.95312 2.53125C9.53906 2.60156 10.0547 2.625 10.5 2.60156C11.0625 2.57813 11.7656 2.49609 12.6094 2.35547C13.4531 2.21484 14.3438 2.07422 15.2812 1.93359C16.2188 1.79297 17.1445 1.67578 18.0586 1.58203C18.9727 1.48828 19.7695 1.47656 20.4492 1.54688C21.1289 1.61719 21.8438 1.78125 22.5938 2.03906C23.3438 2.27344 24.0469 2.60156 24.7031 3.02344C25.3594 3.42188 25.9219 3.91406 26.3906 4.5C26.8828 5.08594 27.1875 5.76562 27.3047 6.53906C27.4219 7.28906 27.3516 8.09766 27.0938 8.96484C26.8359 9.80859 26.4258 10.6406 25.8633 11.4609C25.3008 12.2578 24.5977 12.9961 23.7539 13.6758C22.9102 14.3555 21.9727 14.9062 20.9414 15.3281C20.1211 15.6328 19.2305 15.8672 18.2695 16.0312C17.4492 16.1719 16.4883 16.2656 15.3867 16.3125C14.3086 16.3359 13.1602 16.2188 11.9414 15.9609C11.7773 16.6406 11.6836 17.2734 11.6602 17.8594C11.6602 18.4219 11.6836 18.9258 11.7305 19.3711C11.8008 19.8867 11.8945 20.3555 12.0117 20.7773C12.1523 21.1992 12.3281 21.6914 12.5391 22.2539C12.7266 22.7227 12.9375 23.2969 13.1719 23.9766C13.4297 24.6328 13.7344 25.3711 14.0859 26.1914C13.6641 26.1914 13.2539 26.2031 12.8555 26.2266C12.457 26.2266 12.0938 26.2383 11.7656 26.2617C11.3906 26.2852 11.0391 26.3086 10.7109 26.332C10.3359 26.3555 9.91406 26.4023 9.44531 26.4727C9.04688 26.5195 8.54297 26.5898 7.93359 26.6836C7.34766 26.7773 6.67969 26.8945 5.92969 27.0352C6.42188 26.332 6.80859 25.6875 7.08984 25.1016C7.39453 24.4922 7.61719 23.9648 7.75781 23.5195C7.92188 23.0039 8.02734 22.5352 8.07422 22.1133C8.09766 21.7617 8.09766 21.1406 8.07422 20.25C8.07422 19.3594 8.0625 18.3281 8.03906 17.1562C8.01562 15.9844 7.98047 14.7539 7.93359 13.4648C7.88672 12.1758 7.82812 10.9688 7.75781 9.84375C7.6875 8.69531 7.60547 7.71094 7.51172 6.89062C7.44141 6.07031 7.37109 5.53125 7.30078 5.27344C7.20703 4.96875 7.04297 4.64062 6.80859 4.28906C6.62109 3.98438 6.35156 3.63281 6 3.23438C5.67188 2.8125 5.25 2.34375 4.73438 1.82812ZM12.0117 8.75391C11.9883 8.98828 11.9766 9.23438 11.9766 9.49219C11.9766 9.98438 12.0117 10.6172 12.082 11.3906C12.2461 11.7891 12.4453 12.1172 12.6797 12.375C12.9375 12.6328 13.207 12.832 13.4883 12.9727C13.793 13.1133 14.0977 13.207 14.4023 13.2539C14.707 13.3008 15.0117 13.3242 15.3164 13.3242C16.0195 13.3008 16.7578 13.1367 17.5312 12.832C18.5625 12.3867 19.2891 11.7539 19.7109 10.9336C20.1328 10.1133 20.3555 9.26953 20.3789 8.40234C20.4023 7.53516 20.25 6.73828 19.9219 6.01172C19.6172 5.28516 19.2422 4.79297 18.7969 4.53516C18.4219 4.37109 17.9414 4.30078 17.3555 4.32422C16.8398 4.34766 16.1953 4.47656 15.4219 4.71094C14.6484 4.94531 13.6992 5.36719 12.5742 5.97656C12.457 6.39844 12.3633 6.77344 12.293 7.10156C12.2227 7.42969 12.1641 7.72266 12.1172 7.98047C12.0703 8.26172 12.0352 8.51953 12.0117 8.75391ZM27.3398 2.77734C28.1367 2.87109 28.8047 2.94141 29.3438 2.98828C29.9062 3.01172 30.3633 3.04687 30.7148 3.09375C31.1367 3.14063 31.4648 3.16406 31.6992 3.16406C31.957 3.1875 32.3438 3.17578 32.8594 3.12891C33.3047 3.08203 33.9023 3.02344 34.6523 2.95312C35.4258 2.88281 36.4102 2.77734 37.6055 2.63672C37.0664 3.10547 36.6328 3.5625 36.3047 4.00781C36 4.42969 35.7656 4.80469 35.6016 5.13281C35.3906 5.53125 35.2617 5.90625 35.2148 6.25781C35.1211 6.82031 35.0391 7.59375 34.9688 8.57812C34.9219 9.53906 34.875 10.5938 34.8281 11.7422C34.7812 12.8906 34.7578 14.0742 34.7578 15.293C34.7578 16.5117 34.7695 17.6719 34.793 18.7734C34.8398 19.8516 34.9102 20.8125 35.0039 21.6562C35.1211 22.5 35.2617 23.1094 35.4258 23.4844C35.6602 23.9062 35.9062 24.3281 36.1641 24.75C36.3984 25.1016 36.6797 25.4648 37.0078 25.8398C37.3359 26.2148 37.7109 26.5195 38.1328 26.7539C36.75 26.6836 35.6484 26.6484 34.8281 26.6484H33.5625C33.1875 26.6484 32.707 26.6719 32.1211 26.7188C31.6289 26.7656 31.0078 26.8125 30.2578 26.8594C29.5078 26.9062 28.6055 26.9766 27.5508 27.0703C28.0898 26.4844 28.5117 25.9219 28.8164 25.3828C29.1211 24.8438 29.3672 24.375 29.5547 23.9766C29.7656 23.5078 29.9062 23.0625 29.9766 22.6406C30.0703 22.0312 30.1406 21.2812 30.1875 20.3906C30.2578 19.4766 30.3047 18.5039 30.3281 17.4727C30.3516 16.418 30.3516 15.3516 30.3281 14.2734C30.3281 13.1719 30.3047 12.1172 30.2578 11.1094C30.2109 10.1016 30.1406 9.1875 30.0469 8.36719C29.9766 7.54687 29.8828 6.89062 29.7656 6.39844C29.6953 6.09375 29.5547 5.75391 29.3438 5.37891C29.1562 5.05078 28.8984 4.67578 28.5703 4.25391C28.2656 3.80859 27.8555 3.31641 27.3398 2.77734ZM38.4844 2.46094C39.4453 2.57813 40.418 2.66016 41.4023 2.70703C42.4102 2.75391 43.3242 2.77734 44.1445 2.77734C45.1055 2.77734 46.043 2.75391 46.957 2.70703C47.8945 2.68359 48.8789 2.63672 49.9102 2.56641C50.8008 2.51953 51.8086 2.46094 52.9336 2.39062C54.0586 2.32031 55.2305 2.25 56.4492 2.17969L56.6602 5.23828C56.6602 5.44922 56.6719 5.71875 56.6953 6.04688C56.6953 6.32812 56.6953 6.67969 56.6953 7.10156C56.7188 7.52344 56.7422 8.01562 56.7656 8.57812C55.9219 9.30469 55.1602 9.99609 54.4805 10.6523C53.8242 11.2852 53.2617 11.8477 52.793 12.3398C52.2305 12.9258 51.7383 13.4648 51.3164 13.957C50.7773 14.5898 50.2031 15.3633 49.5938 16.2773C48.9844 17.168 48.4102 18.0469 47.8711 18.9141C47.3555 19.7578 46.9336 20.5195 46.6055 21.1992C46.2773 21.8555 46.1367 22.2656 46.1836 22.4297C46.207 22.5469 46.4414 22.6172 46.8867 22.6406C47.332 22.6406 47.8711 22.6172 48.5039 22.5703C49.1602 22.5234 49.875 22.4531 50.6484 22.3594C51.4453 22.2422 52.1836 22.125 52.8633 22.0078C53.5664 21.8672 54.1875 21.7266 54.7266 21.5859C55.2656 21.4453 55.6172 21.3047 55.7812 21.1641C55.9922 20.9766 56.2266 20.6367 56.4844 20.1445C56.7188 19.7227 56.9766 19.1367 57.2578 18.3867C57.5625 17.6133 57.9023 16.582 58.2773 15.293C58.3008 16.2539 58.3125 17.0742 58.3125 17.7539C58.3359 18.4336 58.3711 19.0078 58.418 19.4766C58.4414 20.0156 58.4766 20.4609 58.5234 20.8125C58.5469 21.1875 58.5938 21.6094 58.6641 22.0781C58.7109 22.4766 58.7695 22.9805 58.8398 23.5898C58.9102 24.1992 59.0039 24.8789 59.1211 25.6289C57.4336 25.418 56.0156 25.2773 54.8672 25.207C53.7188 25.1133 52.793 25.0547 52.0898 25.0312C51.2695 25.0078 50.6133 25.0078 50.1211 25.0312C49.6055 25.1016 48.9023 25.207 48.0117 25.3477C47.2617 25.4648 46.2656 25.6523 45.0234 25.9102C43.7812 26.1445 42.2227 26.4609 40.3477 26.8594C40.3008 26.4141 40.2539 26.0273 40.207 25.6992C40.1602 25.3711 40.1133 25.0781 40.0664 24.8203C40.0195 24.5625 39.9727 24.3164 39.9258 24.082C39.8789 23.8711 39.8203 23.5781 39.75 23.2031C39.7031 22.875 39.6211 22.4766 39.5039 22.0078C39.4102 21.5156 39.293 20.9062 39.1523 20.1797C40.5586 18.7266 41.7188 17.5078 42.6328 16.5234C43.5703 15.5156 44.3203 14.6953 44.8828 14.0625C45.5391 13.3125 46.0547 12.7148 46.4297 12.2695C46.7812 11.8242 47.2383 11.2852 47.8008 10.6523C48.2695 10.1133 48.8789 9.44531 49.6289 8.64844C50.3789 7.82812 51.2812 6.85547 52.3359 5.73047C51.2578 5.68359 50.25 5.68359 49.3125 5.73047C48.3984 5.77734 47.6016 5.84766 46.9219 5.94141C46.125 6.03516 45.3867 6.16406 44.707 6.32812C44.0742 6.51563 43.4297 6.82031 42.7734 7.24219C42.2109 7.59375 41.6016 8.08594 40.9453 8.71875C40.2891 9.35156 39.668 10.1719 39.082 11.1797C39.0352 10.4062 39 9.75 38.9766 9.21094C38.9531 8.67187 38.9297 8.22656 38.9062 7.875C38.8828 7.47656 38.8594 7.14844 38.8359 6.89062C38.8359 6.63281 38.8125 6.29297 38.7656 5.87109C38.7188 5.51953 38.6719 5.07422 38.625 4.53516C38.5781 3.97266 38.5312 3.28125 38.4844 2.46094ZM60.3867 2.46094C61.3477 2.57813 62.3203 2.66016 63.3047 2.70703C64.3125 2.75391 65.2266 2.77734 66.0469 2.77734C67.0078 2.77734 67.9453 2.75391 68.8594 2.70703C69.7969 2.68359 70.7812 2.63672 71.8125 2.56641C72.7031 2.51953 73.7109 2.46094 74.8359 2.39062C75.9609 2.32031 77.1328 2.25 78.3516 2.17969L78.5625 5.23828C78.5625 5.44922 78.5742 5.71875 78.5977 6.04688C78.5977 6.32812 78.5977 6.67969 78.5977 7.10156C78.6211 7.52344 78.6445 8.01562 78.668 8.57812C77.8242 9.30469 77.0625 9.99609 76.3828 10.6523C75.7266 11.2852 75.1641 11.8477 74.6953 12.3398C74.1328 12.9258 73.6406 13.4648 73.2188 13.957C72.6797 14.5898 72.1055 15.3633 71.4961 16.2773C70.8867 17.168 70.3125 18.0469 69.7734 18.9141C69.2578 19.7578 68.8359 20.5195 68.5078 21.1992C68.1797 21.8555 68.0391 22.2656 68.0859 22.4297C68.1094 22.5469 68.3438 22.6172 68.7891 22.6406C69.2344 22.6406 69.7734 22.6172 70.4062 22.5703C71.0625 22.5234 71.7773 22.4531 72.5508 22.3594C73.3477 22.2422 74.0859 22.125 74.7656 22.0078C75.4688 21.8672 76.0898 21.7266 76.6289 21.5859C77.168 21.4453 77.5195 21.3047 77.6836 21.1641C77.8945 20.9766 78.1289 20.6367 78.3867 20.1445C78.6211 19.7227 78.8789 19.1367 79.1602 18.3867C79.4648 17.6133 79.8047 16.582 80.1797 15.293C80.2031 16.2539 80.2148 17.0742 80.2148 17.7539C80.2383 18.4336 80.2734 19.0078 80.3203 19.4766C80.3438 20.0156 80.3789 20.4609 80.4258 20.8125C80.4492 21.1875 80.4961 21.6094 80.5664 22.0781C80.6133 22.4766 80.6719 22.9805 80.7422 23.5898C80.8125 24.1992 80.9062 24.8789 81.0234 25.6289C79.3359 25.418 77.918 25.2773 76.7695 25.207C75.6211 25.1133 74.6953 25.0547 73.9922 25.0312C73.1719 25.0078 72.5156 25.0078 72.0234 25.0312C71.5078 25.1016 70.8047 25.207 69.9141 25.3477C69.1641 25.4648 68.168 25.6523 66.9258 25.9102C65.6836 26.1445 64.125 26.4609 62.25 26.8594C62.2031 26.4141 62.1562 26.0273 62.1094 25.6992C62.0625 25.3711 62.0156 25.0781 61.9688 24.8203C61.9219 24.5625 61.875 24.3164 61.8281 24.082C61.7812 23.8711 61.7227 23.5781 61.6523 23.2031C61.6055 22.875 61.5234 22.4766 61.4062 22.0078C61.3125 21.5156 61.1953 20.9062 61.0547 20.1797C62.4609 18.7266 63.6211 17.5078 64.5352 16.5234C65.4727 15.5156 66.2227 14.6953 66.7852 14.0625C67.4414 13.3125 67.957 12.7148 68.332 12.2695C68.6836 11.8242 69.1406 11.2852 69.7031 10.6523C70.1719 10.1133 70.7812 9.44531 71.5312 8.64844C72.2812 7.82812 73.1836 6.85547 74.2383 5.73047C73.1602 5.68359 72.1523 5.68359 71.2148 5.73047C70.3008 5.77734 69.5039 5.84766 68.8242 5.94141C68.0273 6.03516 67.2891 6.16406 66.6094 6.32812C65.9766 6.51563 65.332 6.82031 64.6758 7.24219C64.1133 7.59375 63.5039 8.08594 62.8477 8.71875C62.1914 9.35156 61.5703 10.1719 60.9844 11.1797C60.9375 10.4062 60.9023 9.75 60.8789 9.21094C60.8555 8.67187 60.832 8.22656 60.8086 7.875C60.7852 7.47656 60.7617 7.14844 60.7383 6.89062C60.7383 6.63281 60.7148 6.29297 60.668 5.87109C60.6211 5.51953 60.5742 5.07422 60.5273 4.53516C60.4805 3.97266 60.4336 3.28125 60.3867 2.46094ZM87.8086 3.19922C88.9805 3.26953 89.9648 3.32812 90.7617 3.375C91.582 3.39844 92.2617 3.42188 92.8008 3.44531C93.4102 3.46875 93.9258 3.46875 94.3477 3.44531C94.7695 3.42188 95.3438 3.36328 96.0703 3.26953C96.6797 3.19922 97.4883 3.09375 98.4961 2.95312C99.5273 2.78906 100.805 2.57813 102.328 2.32031C101.789 2.85938 101.367 3.35156 101.062 3.79688C100.781 4.21875 100.559 4.58203 100.395 4.88672C100.207 5.26172 100.078 5.57812 100.008 5.83594C99.9609 6.07031 100.008 6.65625 100.148 7.59375C100.289 8.53125 100.488 9.64453 100.746 10.9336C101.004 12.1992 101.285 13.5586 101.59 15.0117C101.895 16.4414 102.199 17.7891 102.504 19.0547C102.809 20.2969 103.078 21.3633 103.312 22.2539C103.57 23.1211 103.758 23.6367 103.875 23.8008C104.227 24.293 104.449 24.6211 104.543 24.7852C104.637 24.9258 104.801 25.0547 105.035 25.1719C105.129 25.2188 105.281 25.2891 105.492 25.3828C105.68 25.4766 105.926 25.5938 106.23 25.7344C106.559 25.875 106.969 26.0391 107.461 26.2266C106.547 26.2734 105.762 26.3086 105.105 26.332C104.449 26.332 103.91 26.3438 103.488 26.3672C102.996 26.3906 102.574 26.4141 102.223 26.4375C101.871 26.4375 101.449 26.4609 100.957 26.5078C100.535 26.5547 99.9844 26.6016 99.3047 26.6484C98.6484 26.6953 97.875 26.7422 96.9844 26.7891C97.4531 26.4609 97.8281 26.168 98.1094 25.9102C98.4141 25.6289 98.6484 25.3945 98.8125 25.207C99 24.9727 99.1289 24.7617 99.1992 24.5742C99.2461 24.3633 99.2812 24.0469 99.3047 23.625C99.3281 23.25 99.3281 22.7578 99.3047 22.1484C99.2812 21.5156 99.2227 20.6953 99.1289 19.6875L89.8828 20.6367C89.6484 21.0352 89.4727 21.3867 89.3555 21.6914C89.2383 21.9727 89.1562 22.2188 89.1094 22.4297C89.0391 22.6875 89.0156 22.8984 89.0391 23.0625C89.0859 23.25 89.168 23.4727 89.2852 23.7305C89.4023 23.9648 89.5664 24.2461 89.7773 24.5742C90.0117 24.8789 90.3516 25.2422 90.7969 25.6641C90.2109 25.6406 89.6133 25.6289 89.0039 25.6289C88.3945 25.6289 87.832 25.6406 87.3164 25.6641C86.707 25.6875 86.1094 25.7109 85.5234 25.7344C84.9375 25.7578 84.2695 25.793 83.5195 25.8398C82.8867 25.8867 82.1484 25.9453 81.3047 26.0156C80.4375 26.0625 79.5117 26.1328 78.5273 26.2266C79.1367 25.9453 79.6523 25.6641 80.0742 25.3828C80.4961 25.0781 80.8477 24.7969 81.1289 24.5391C81.457 24.2578 81.7383 23.9883 81.9727 23.7305C82.1367 23.4961 82.4648 22.957 82.957 22.1133C83.4492 21.2461 84 20.2266 84.6094 19.0547C85.2422 17.8828 85.8984 16.6289 86.5781 15.293C87.2812 13.957 87.9141 12.7031 88.4766 11.5312C89.0391 10.3359 89.4961 9.30469 89.8477 8.4375C90.1992 7.57031 90.375 7.00781 90.375 6.75C90.3281 6.44531 90.2109 6.10547 90.0234 5.73047C89.8594 5.40234 89.6016 5.02734 89.25 4.60547C88.9219 4.18359 88.4414 3.71484 87.8086 3.19922ZM98.707 17.0859C98.5664 16.2656 98.4375 15.5625 98.3203 14.9766C98.2031 14.3672 98.1094 13.8633 98.0391 13.4648C97.9453 12.9961 97.875 12.5859 97.8281 12.2344C97.7578 11.9062 97.6758 11.4844 97.582 10.9688C97.4883 10.5234 97.3711 9.97266 97.2305 9.31641C97.1133 8.63672 96.9609 7.82812 96.7734 6.89062C95.4375 9.5625 94.3945 11.6367 93.6445 13.1133C92.918 14.5664 92.3906 15.6328 92.0625 16.3125C91.6641 17.1094 91.4414 17.5781 91.3945 17.7188L98.707 17.0859Z" fill="black"/>
<path d="M111.328 3.19922C112.5 3.26953 113.484 3.32812 114.281 3.375C115.102 3.39844 115.781 3.42188 116.32 3.44531C116.93 3.46875 117.445 3.46875 117.867 3.44531C118.289 3.42188 118.863 3.36328 119.59 3.26953C120.199 3.19922 121.008 3.09375 122.016 2.95312C123.047 2.78906 124.324 2.57813 125.848 2.32031C125.309 2.85938 124.887 3.35156 124.582 3.79688C124.301 4.21875 124.078 4.58203 123.914 4.88672C123.727 5.26172 123.598 5.57812 123.527 5.83594C123.48 6.07031 123.527 6.65625 123.668 7.59375C123.809 8.53125 124.008 9.64453 124.266 10.9336C124.523 12.1992 124.805 13.5586 125.109 15.0117C125.414 16.4414 125.719 17.7891 126.023 19.0547C126.328 20.2969 126.598 21.3633 126.832 22.2539C127.09 23.1211 127.277 23.6367 127.395 23.8008C127.746 24.293 127.969 24.6211 128.062 24.7852C128.156 24.9258 128.32 25.0547 128.555 25.1719C128.648 25.2188 128.801 25.2891 129.012 25.3828C129.199 25.4766 129.445 25.5938 129.75 25.7344C130.078 25.875 130.488 26.0391 130.98 26.2266C130.066 26.2734 129.281 26.3086 128.625 26.332C127.969 26.332 127.43 26.3438 127.008 26.3672C126.516 26.3906 126.094 26.4141 125.742 26.4375C125.391 26.4375 124.969 26.4609 124.477 26.5078C124.055 26.5547 123.504 26.6016 122.824 26.6484C122.168 26.6953 121.395 26.7422 120.504 26.7891C120.973 26.4609 121.348 26.168 121.629 25.9102C121.934 25.6289 122.168 25.3945 122.332 25.207C122.52 24.9727 122.648 24.7617 122.719 24.5742C122.766 24.3633 122.801 24.0469 122.824 23.625C122.848 23.25 122.848 22.7578 122.824 22.1484C122.801 21.5156 122.742 20.6953 122.648 19.6875L113.402 20.6367C113.168 21.0352 112.992 21.3867 112.875 21.6914C112.758 21.9727 112.676 22.2188 112.629 22.4297C112.559 22.6875 112.535 22.8984 112.559 23.0625C112.605 23.25 112.688 23.4727 112.805 23.7305C112.922 23.9648 113.086 24.2461 113.297 24.5742C113.531 24.8789 113.871 25.2422 114.316 25.6641C113.73 25.6406 113.133 25.6289 112.523 25.6289C111.914 25.6289 111.352 25.6406 110.836 25.6641C110.227 25.6875 109.629 25.7109 109.043 25.7344C108.457 25.7578 107.789 25.793 107.039 25.8398C106.406 25.8867 105.668 25.9453 104.824 26.0156C103.957 26.0625 103.031 26.1328 102.047 26.2266C102.656 25.9453 103.172 25.6641 103.594 25.3828C104.016 25.0781 104.367 24.7969 104.648 24.5391C104.977 24.2578 105.258 23.9883 105.492 23.7305C105.656 23.4961 105.984 22.957 106.477 22.1133C106.969 21.2461 107.52 20.2266 108.129 19.0547C108.762 17.8828 109.418 16.6289 110.098 15.293C110.801 13.957 111.434 12.7031 111.996 11.5312C112.559 10.3359 113.016 9.30469 113.367 8.4375C113.719 7.57031 113.895 7.00781 113.895 6.75C113.848 6.44531 113.73 6.10547 113.543 5.73047C113.379 5.40234 113.121 5.02734 112.77 4.60547C112.441 4.18359 111.961 3.71484 111.328 3.19922ZM122.227 17.0859C122.086 16.2656 121.957 15.5625 121.84 14.9766C121.723 14.3672 121.629 13.8633 121.559 13.4648C121.465 12.9961 121.395 12.5859 121.348 12.2344C121.277 11.9062 121.195 11.4844 121.102 10.9688C121.008 10.5234 120.891 9.97266 120.75 9.31641C120.633 8.63672 120.48 7.82812 120.293 6.89062C118.957 9.5625 117.914 11.6367 117.164 13.1133C116.438 14.5664 115.91 15.6328 115.582 16.3125C115.184 17.1094 114.961 17.5781 114.914 17.7188L122.227 17.0859ZM127.887 1.33594C128.637 1.45313 129.316 1.55859 129.926 1.65234C130.535 1.72266 131.062 1.78125 131.508 1.82812C132.023 1.89844 132.48 1.95703 132.879 2.00391C133.371 2.07422 134.109 1.99219 135.094 1.75781C136.078 1.5 137.156 1.26562 138.328 1.05469C139.523 0.820313 140.742 0.691406 141.984 0.667969C143.227 0.621094 144.363 0.84375 145.395 1.33594C146.426 1.82812 147.27 2.32031 147.926 2.8125C148.582 3.30469 149.098 3.83203 149.473 4.39453C149.871 4.93359 150.152 5.50781 150.316 6.11719C150.48 6.72656 150.574 7.39453 150.598 8.12109C150.574 9.19922 150.316 10.2422 149.824 11.25C149.613 11.6719 149.332 12.1172 148.98 12.5859C148.652 13.0312 148.242 13.4648 147.75 13.8867C147.258 14.3086 146.672 14.707 145.992 15.082C145.336 15.457 144.562 15.7852 143.672 16.0664C144.539 16.3242 145.254 16.6289 145.816 16.9805C146.402 17.332 146.871 17.6602 147.223 17.9648C147.645 18.3398 147.961 18.7031 148.172 19.0547C148.43 19.5469 148.605 19.9688 148.699 20.3203C148.793 20.6719 148.852 21.0117 148.875 21.3398C148.922 21.6445 148.98 21.9609 149.051 22.2891C149.121 22.6172 149.273 22.9922 149.508 23.4141C149.695 23.7422 149.918 24.082 150.176 24.4336C150.41 24.7383 150.68 25.0664 150.984 25.418C151.312 25.7695 151.711 26.1094 152.18 26.4375C151.523 26.4609 150.914 26.4727 150.352 26.4727C149.812 26.4727 149.344 26.4727 148.945 26.4727C148.477 26.4727 148.031 26.4609 147.609 26.4375C147.188 26.4141 146.66 26.4023 146.027 26.4023C145.488 26.4023 144.797 26.4023 143.953 26.4023C143.133 26.4023 142.137 26.4141 140.965 26.4375C141.48 26.0391 141.902 25.6406 142.23 25.2422C142.559 24.8438 142.816 24.4805 143.004 24.1523C143.215 23.7773 143.367 23.4141 143.461 23.0625C143.578 22.4297 143.59 21.7734 143.496 21.0938C143.426 20.5078 143.238 19.8633 142.934 19.1602C142.629 18.4336 142.137 17.707 141.457 16.9805C140.777 17.0977 140.203 17.1914 139.734 17.2617C139.289 17.3086 138.902 17.3555 138.574 17.4023C138.199 17.4492 137.895 17.4844 137.66 17.5078C137.449 17.5312 137.215 17.5547 136.957 17.5781C136.746 17.6016 136.512 17.6367 136.254 17.6836C136.02 17.707 135.797 17.7422 135.586 17.7891C135.539 18.7969 135.539 19.6758 135.586 20.4258C135.633 21.1523 135.691 21.7617 135.762 22.2539C135.855 22.8398 135.961 23.3438 136.078 23.7656C136.195 24.1875 136.359 24.5977 136.57 24.9961C136.734 25.3242 136.945 25.6758 137.203 26.0508C137.461 26.4023 137.754 26.6953 138.082 26.9297C137.473 26.9297 136.887 26.9297 136.324 26.9297C135.785 26.9297 135.293 26.918 134.848 26.8945C134.332 26.8945 133.84 26.8828 133.371 26.8594C132.902 26.8359 132.375 26.8242 131.789 26.8242C131.297 26.8242 130.711 26.8242 130.031 26.8242C129.375 26.8242 128.66 26.8359 127.887 26.8594C128.496 26.2266 128.977 25.6875 129.328 25.2422C129.68 24.7969 129.949 24.4219 130.137 24.1172C130.348 23.7891 130.477 23.5078 130.523 23.2734C130.57 22.8984 130.605 22.2305 130.629 21.2695C130.676 20.2852 130.711 19.1602 130.734 17.8945C130.758 16.6289 130.77 15.3047 130.77 13.9219C130.77 12.5391 130.758 11.25 130.734 10.0547C130.711 8.83594 130.688 7.79297 130.664 6.92578C130.641 6.05859 130.617 5.50781 130.594 5.27344C130.523 4.85156 130.371 4.42969 130.137 4.00781C129.949 3.63281 129.68 3.21094 129.328 2.74219C128.977 2.27344 128.496 1.80469 127.887 1.33594ZM141.176 13.7109C141.41 13.5703 141.609 13.4297 141.773 13.2891C141.938 13.1484 142.078 12.9258 142.195 12.6211C142.312 12.293 142.406 11.8359 142.477 11.25C142.57 10.6641 142.676 9.86719 142.793 8.85938C142.887 7.85156 142.816 7.01953 142.582 6.36328C142.371 5.70703 142.078 5.19141 141.703 4.81641C141.352 4.41797 140.953 4.14844 140.508 4.00781C140.086 3.84375 139.711 3.76172 139.383 3.76172C138.727 3.76172 138.082 3.96094 137.449 4.35938C136.816 4.75781 136.336 5.29687 136.008 5.97656C135.891 6.28125 135.785 6.78516 135.691 7.48828C135.621 8.09766 135.574 8.94141 135.551 10.0195C135.527 11.0977 135.562 12.5156 135.656 14.2734C136.547 14.4141 137.332 14.4727 138.012 14.4492C138.691 14.4023 139.266 14.3203 139.734 14.2031C140.297 14.0859 140.777 13.9219 141.176 13.7109ZM157.172 3.19922C158.344 3.26953 159.328 3.32812 160.125 3.375C160.945 3.39844 161.625 3.42188 162.164 3.44531C162.773 3.46875 163.289 3.46875 163.711 3.44531C164.133 3.42188 164.707 3.36328 165.434 3.26953C166.043 3.19922 166.852 3.09375 167.859 2.95312C168.891 2.78906 170.168 2.57813 171.691 2.32031C171.152 2.85938 170.73 3.35156 170.426 3.79688C170.145 4.21875 169.922 4.58203 169.758 4.88672C169.57 5.26172 169.441 5.57812 169.371 5.83594C169.324 6.07031 169.371 6.65625 169.512 7.59375C169.652 8.53125 169.852 9.64453 170.109 10.9336C170.367 12.1992 170.648 13.5586 170.953 15.0117C171.258 16.4414 171.562 17.7891 171.867 19.0547C172.172 20.2969 172.441 21.3633 172.676 22.2539C172.934 23.1211 173.121 23.6367 173.238 23.8008C173.59 24.293 173.812 24.6211 173.906 24.7852C174 24.9258 174.164 25.0547 174.398 25.1719C174.492 25.2188 174.645 25.2891 174.855 25.3828C175.043 25.4766 175.289 25.5938 175.594 25.7344C175.922 25.875 176.332 26.0391 176.824 26.2266C175.91 26.2734 175.125 26.3086 174.469 26.332C173.812 26.332 173.273 26.3438 172.852 26.3672C172.359 26.3906 171.938 26.4141 171.586 26.4375C171.234 26.4375 170.812 26.4609 170.32 26.5078C169.898 26.5547 169.348 26.6016 168.668 26.6484C168.012 26.6953 167.238 26.7422 166.348 26.7891C166.816 26.4609 167.191 26.168 167.473 25.9102C167.777 25.6289 168.012 25.3945 168.176 25.207C168.363 24.9727 168.492 24.7617 168.562 24.5742C168.609 24.3633 168.645 24.0469 168.668 23.625C168.691 23.25 168.691 22.7578 168.668 22.1484C168.645 21.5156 168.586 20.6953 168.492 19.6875L159.246 20.6367C159.012 21.0352 158.836 21.3867 158.719 21.6914C158.602 21.9727 158.52 22.2188 158.473 22.4297C158.402 22.6875 158.379 22.8984 158.402 23.0625C158.449 23.25 158.531 23.4727 158.648 23.7305C158.766 23.9648 158.93 24.2461 159.141 24.5742C159.375 24.8789 159.715 25.2422 160.16 25.6641C159.574 25.6406 158.977 25.6289 158.367 25.6289C157.758 25.6289 157.195 25.6406 156.68 25.6641C156.07 25.6875 155.473 25.7109 154.887 25.7344C154.301 25.7578 153.633 25.793 152.883 25.8398C152.25 25.8867 151.512 25.9453 150.668 26.0156C149.801 26.0625 148.875 26.1328 147.891 26.2266C148.5 25.9453 149.016 25.6641 149.438 25.3828C149.859 25.0781 150.211 24.7969 150.492 24.5391C150.82 24.2578 151.102 23.9883 151.336 23.7305C151.5 23.4961 151.828 22.957 152.32 22.1133C152.812 21.2461 153.363 20.2266 153.973 19.0547C154.605 17.8828 155.262 16.6289 155.941 15.293C156.645 13.957 157.277 12.7031 157.84 11.5312C158.402 10.3359 158.859 9.30469 159.211 8.4375C159.562 7.57031 159.738 7.00781 159.738 6.75C159.691 6.44531 159.574 6.10547 159.387 5.73047C159.223 5.40234 158.965 5.02734 158.613 4.60547C158.285 4.18359 157.805 3.71484 157.172 3.19922ZM168.07 17.0859C167.93 16.2656 167.801 15.5625 167.684 14.9766C167.566 14.3672 167.473 13.8633 167.402 13.4648C167.309 12.9961 167.238 12.5859 167.191 12.2344C167.121 11.9062 167.039 11.4844 166.945 10.9688C166.852 10.5234 166.734 9.97266 166.594 9.31641C166.477 8.63672 166.324 7.82812 166.137 6.89062C164.801 9.5625 163.758 11.6367 163.008 13.1133C162.281 14.5664 161.754 15.6328 161.426 16.3125C161.027 17.1094 160.805 17.5781 160.758 17.7188L168.07 17.0859Z" fill="#EEA539"/>
</g>
<defs>
<filter id="filter0_d_64_2" x="0.734375" y="0.597656" width="180.09" height="34.4727" filterUnits="userSpaceOnUse" color-interpolation-filters="sRGB">
<feFlood flood-opacity="0" result="BackgroundImageFix"/>
<feColorMatrix in="SourceAlpha" type="matrix" values="0 0 0 0 0 0 0 0 0 0 0 0 0 0 0 0 0 0 127 0" result="hardAlpha"/>
<feOffset dy="4"/>
<feGaussianBlur stdDeviation="2"/>
<feComposite in2="hardAlpha" operator="out"/>
<feColorMatrix type="matrix" values="0 0 0 0 0 0 0 0 0 0 0 0 0 0 0 0 0 0 0.25 0"/>
<feBlend mode="normal" in2="BackgroundImageFix" result="effect1_dropShadow_64_2"/>
<feBlend mode="normal" in="SourceGraphic" in2="effect1_dropShadow_64_2" result="shape"/>
</filter>
</defs>
</svg>
